<svg xmlns="http://www.w3.org/2000/svg" width="100" height="100" baseProfile="basic" viewBox="0 0 100 100"><polygon fill="#f59173" points="45.794 48.574 35 85 18.333 85 22.942 71.426"/><path fill="#1f212b" d="M35,86H18.333c-0.322,0-0.625-0.155-0.812-0.417c-0.188-0.262-0.238-0.599-0.135-0.904l4.609-13.574	c0.05-0.146,0.132-0.277,0.24-0.386l22.852-22.852c0.322-0.324,0.824-0.387,1.219-0.152c0.393,0.234,0.577,0.705,0.447,1.144	L35.959,85.284C35.833,85.708,35.442,86,35,86z M19.729,84h14.524l9.463-31.934L23.814,71.968L19.729,84z"/><path fill="#1f212b" d="M25.456,82h-2.238c-0.276,0-0.5-0.224-0.5-0.5s0.224-0.5,0.5-0.5h2.238c0.276,0,0.5,0.224,0.5,0.5	S25.732,82,25.456,82z"/><path fill="#1f212b" d="M32.387,82h-4.852c-0.276,0-0.5-0.224-0.5-0.5s0.224-0.5,0.5-0.5h4.479l6.028-20.346	c0.079-0.265,0.36-0.417,0.621-0.337c0.266,0.079,0.416,0.357,0.338,0.622l-6.135,20.704C32.803,81.854,32.608,82,32.387,82z"/><polygon fill="#f59173" points="63.747 32.304 52.407 42.504 65 85 81.667 85"/><path fill="#1f212b" d="M81.667,86H65c-0.442,0-0.833-0.292-0.959-0.716L51.448,42.789c-0.109-0.37,0.004-0.77,0.29-1.028	l11.34-10.201c0.249-0.225,0.592-0.309,0.922-0.224c0.325,0.085,0.586,0.328,0.693,0.646l17.92,52.696	c0.104,0.305,0.055,0.642-0.133,0.904C82.292,85.844,81.989,86,81.667,86z M65.747,84h14.523L63.288,34.061l-9.743,8.765L65.747,84z"/><path fill="#1f212b" d="M76.779,82h-9.166c-0.276,0-0.5-0.224-0.5-0.5s0.224-0.5,0.5-0.5h8.468l-2.806-8.251	c-0.089-0.262,0.051-0.545,0.312-0.634c0.26-0.091,0.545,0.05,0.635,0.312l3.03,8.912c0.052,0.153,0.026,0.321-0.067,0.452	C77.092,81.922,76.94,82,76.779,82z"/><path fill="#1f212b" d="M73.041,71.008c-0.208,0-0.402-0.131-0.474-0.339l-1.357-3.993c-0.089-0.262,0.051-0.545,0.312-0.635	c0.26-0.088,0.545,0.051,0.635,0.312l1.357,3.993c0.089,0.262-0.051,0.545-0.312,0.635C73.148,71,73.095,71.008,73.041,71.008z"/><path fill="#1f212b" d="M70.983,64.955c-0.208,0-0.402-0.131-0.474-0.339L61.765,38.9c-0.089-0.262,0.051-0.545,0.312-0.634	c0.262-0.09,0.545,0.05,0.635,0.312l8.745,25.716c0.089,0.262-0.051,0.545-0.312,0.634C71.091,64.947,71.037,64.955,70.983,64.955z"/><polygon fill="#f59173" points="28.25 55.793 25.919 62.659 48.03 41.029 50 34.38 51.09 38.058 62.067 27.274 60.852 23.696"/><path fill="#1f212b" d="M25.919,63.659c-0.184,0-0.369-0.05-0.533-0.154c-0.392-0.247-0.562-0.729-0.414-1.167l2.331-6.866	c0.051-0.148,0.135-0.282,0.246-0.391l21.732-21.396c0.011-0.012,0.022-0.023,0.034-0.035l10.836-10.667	c0.244-0.243,0.599-0.34,0.932-0.261c0.335,0.08,0.605,0.326,0.717,0.652l1.215,3.579c0.123,0.363,0.027,0.766-0.246,1.035	L51.791,38.771c-0.251,0.247-0.616,0.343-0.951,0.255c-0.34-0.088-0.609-0.348-0.709-0.684L50,37.899l-1.012,3.414	c-0.049,0.163-0.138,0.312-0.26,0.431l-22.11,21.63C26.426,63.562,26.174,63.659,25.919,63.659z M29.121,56.34l-0.91,2.678	l18.934-18.521l0.795-2.684L29.121,56.34z M51.13,34.672l0.446,1.507l9.343-9.178l-0.501-1.474L51.13,34.672z"/><polygon fill="#f59173" points="31.372 46.598 59.466 19.613 57.9 15 42.1 15"/><path fill="#1f212b" d="M31.372,47.598c-0.186,0-0.372-0.051-0.536-0.156c-0.39-0.248-0.559-0.729-0.411-1.165l10.728-31.598	C41.29,14.273,41.671,14,42.1,14H57.9c0.429,0,0.81,0.273,0.947,0.679l1.565,4.613c0.124,0.367,0.025,0.774-0.255,1.042	L32.064,47.319C31.873,47.503,31.623,47.598,31.372,47.598z M42.816,16l-9.179,27.035l24.677-23.703L57.184,16H42.816z"/><rect width="31.778" height="1.999" x="30.421" y="24.869" fill="#1f212b" transform="rotate(-43.139 46.31 25.867)"/></svg>